<?xml version="1.0" encoding="utf-8"?>
<!-- Generator: Adobe Illustrator 23.0.0, SVG Export Plug-In . SVG Version: 6.00 Build 0)  -->
<svg version="1.1" id="圖層_1" xmlns="http://www.w3.org/2000/svg" xmlns:xlink="http://www.w3.org/1999/xlink" x="0px" y="0px"
	 viewBox="0 0 24 24" style="enable-background:new 0 0 24 24;" xml:space="preserve">
<style type="text/css">
	.st0{fill:#424242;}
</style>
<title>Facebook icon</title>
<path class="st0" d="M22,0.8H2C1.3,0.8,0.8,1.3,0.8,2v20c0,0.7,0.6,1.2,1.2,1.2h10.7v-8.7H9.8v-3.4h2.9V8.6c0-2.9,1.8-4.5,4.4-4.5
	c1.2,0,2.3,0.1,2.6,0.1v3h-1.8c-1.4,0-1.7,0.7-1.7,1.7v2.2h3.4l-0.4,3.4h-2.9v8.7H22c0.7,0,1.2-0.6,1.2-1.2V2
	C23.2,1.3,22.7,0.8,22,0.8"/>
</svg>
