<svg xmlns="http://www.w3.org/2000/svg" viewBox="0 0 128 128"><defs><style>.a{fill:#444;}.b{fill:#fff;}</style></defs><title>contact-icon</title><circle class="a" cx="64" cy="64" r="64"/><path class="b" d="M64.3,93.6c-17.4,0-30.6-12.2-30.6-29.4S47.1,34.3,64.6,34.3c16.3,0,29.7,11.2,29.7,27.1,0,7.8-3.2,17.6-14,17.6-4.1,0-7.2-1.5-8.7-4.4-2.2,2.7-5.5,4.2-9.8,4.2-8,0-14.3-5.7-14.3-14.8,0-9.3,6.4-14.9,14.3-14.9a12.42,12.42,0,0,1,8.8,3.3V49.7h8v20c0,2.2,1.7,3.3,3.6,3.3,4,0,5.8-6.1,5.8-11.5,0-13-10.5-21.6-23.5-21.6-14,0-24.6,10.2-24.6,24S50.5,87.5,64.1,87.5a27.78,27.78,0,0,0,17.3-6l3.2,5.1c-5.2,4.5-12.5,7-20.3,7m6.3-29.5a7,7,0,0,0-6.9-7.3c-3.5,0-6.8,2.7-6.8,7.3s3.3,7.3,6.8,7.3S70.6,68.6,70.6,64.1Z"/></svg>