<?xml version="1.0" encoding="utf-8"?>
<!-- Generator: Adobe Illustrator 23.0.0, SVG Export Plug-In . SVG Version: 6.00 Build 0)  -->
<svg version="1.1" id="圖層_1" xmlns="http://www.w3.org/2000/svg" xmlns:xlink="http://www.w3.org/1999/xlink" x="0px" y="0px"
	 viewBox="0 0 200 200" style="enable-background:new 0 0 200 200;" xml:space="preserve">
<style type="text/css">
	.st0{stroke:#FFFFFF;stroke-width:8;stroke-miterlimit:10;}
	.st1{fill:#FFFFFF;}
</style>
<title>contact-icon</title>
<circle class="st0" cx="100" cy="100" r="95"/>
<path class="st1" d="M100.4,143.9c-25.8,0-45.4-18.1-45.4-43.6s19.9-44.4,45.9-44.4c24.2,0,44.1,16.6,44.1,40.2
	c0,11.6-4.7,26.1-20.8,26.1c-6.1,0-10.7-2.2-12.9-6.5c-3.3,4-8.2,6.2-14.5,6.2c-11.9,0-21.2-8.5-21.2-22c0-13.8,9.5-22.1,21.2-22.1
	c4.9-0.1,9.5,1.6,13.1,4.9v-4h11.9v29.7c0,3.3,2.5,4.9,5.3,4.9c5.9,0,8.6-9.1,8.6-17.1c0-19.3-15.6-32.1-34.9-32.1
	c-20.8,0-36.5,15.1-36.5,35.6s15.7,35,35.9,35c9.4,0,18.4-3.1,25.7-8.9l4.8,7.6C122.9,140.2,112,143.9,100.4,143.9 M109.8,100.1
	c0.3-5.8-4.2-10.5-9.9-10.8c-0.1,0-0.1,0-0.3,0c-5.2,0-10.1,4-10.1,10.8c0,6.8,4.9,10.8,10.1,10.8S109.8,106.8,109.8,100.1z"/>
</svg>
