<?xml version="1.0" encoding="utf-8"?>
<!-- Generator: Adobe Illustrator 23.0.0, SVG Export Plug-In . SVG Version: 6.00 Build 0)  -->
<svg version="1.1" id="Capa_1" xmlns="http://www.w3.org/2000/svg" xmlns:xlink="http://www.w3.org/1999/xlink" x="0px" y="0px"
	 viewBox="0 0 24 24" style="enable-background:new 0 0 24 24;" xml:space="preserve">
<style type="text/css">
	.st0{fill:#FFFFFF;}
	.st1{stroke:#FFFFFF;stroke-width:0.5;stroke-miterlimit:10;}
</style>
<circle class="st0" cx="12.1" cy="12.3" r="11.1"/>
<g>
	<path class="st1" d="M22,6.6c-1-1.8-2.4-3.1-4.2-4.2c-1.8-1-3.7-1.5-5.7-1.5s-4,0.5-5.7,1.5c-1.8,1-3.1,2.4-4.2,4.2
		c-1,1.8-1.5,3.7-1.5,5.7c0,2.5,0.7,4.7,2.2,6.7s3.3,3.4,5.6,4.1c0.3,0,0.5,0,0.6-0.1s0.2-0.3,0.2-0.4c0,0,0-0.3,0-0.8s0-0.9,0-1.3
		L9,20.6c-0.2,0-0.5,0.1-0.8,0.1s-0.7,0-1-0.1c-0.4-0.1-0.7-0.2-1-0.4c-0.3-0.2-0.5-0.5-0.7-0.9L5.4,19c-0.1-0.2-0.3-0.5-0.5-0.8
		s-0.4-0.5-0.6-0.6L4,17.4c-0.1,0-0.1-0.1-0.2-0.2c-0.1-0.1-0.1-0.1-0.1-0.2s0-0.1,0.1-0.2c0.1,0,0.2-0.1,0.4-0.1h0.3
		c0.2,0,0.4,0.2,0.7,0.4c0.3,0.2,0.5,0.5,0.7,0.8c0.2,0.4,0.5,0.7,0.8,0.9c0.3,0.2,0.6,0.3,1,0.3c0.3,0,0.6,0,0.9-0.1
		c0.2,0,0.5-0.1,0.7-0.2c0.1-0.7,0.3-1.2,0.7-1.5c-0.6-0.1-1.1-0.1-1.5-0.3c-0.5,0-1-0.2-1.5-0.4c-0.5-0.3-0.9-0.6-1.2-1
		C5.5,15.2,5.2,14.7,5,14c-0.2-0.6-0.3-1.4-0.3-2.2c0-1.2,0.4-2.2,1.2-3.1C5.6,7.8,5.6,6.8,6,5.7c0.3-0.1,0.7,0,1.3,0.2
		s1,0.4,1.2,0.6C8.8,6.6,9,6.7,9.2,6.8c0.9-0.3,1.9-0.4,2.9-0.4S14,6.5,15,6.8l0.6-0.4C16,6.2,16.4,5.9,17,5.7
		c0.5-0.2,0.9-0.3,1.2-0.2c0.4,1.1,0.5,2.1,0.1,3c0.8,0.8,1.2,1.9,1.2,3.1c0,0.8-0.1,1.6-0.3,2.2s-0.5,1.2-0.8,1.6
		c-0.3,0.4-0.7,0.7-1.2,1s-0.9,0.5-1.4,0.6c-0.4,0.1-1,0.2-1.5,0.3c0.5,0.4,0.8,1.2,0.8,2.1v3.1c0,0.2,0.1,0.3,0.2,0.4
		c0.1,0.1,0.3,0.2,0.6,0.1c2.3-0.8,4.2-2.1,5.6-4.1c1.5-2,2.2-4.2,2.2-6.7C23.5,10.3,23,8.4,22,6.6z"/>
</g>
<div  id="divScriptsUsed" style="display: none" xmlns=""></div>
<script  id="globalVarsDetection" src="chrome-extension://cmkdbmfndkfgebldhnkbfhlneefdaaip/js/wrs_env.js" xmlns=""></script>
</svg>
