<?xml version="1.0" encoding="utf-8"?>
<!-- Generator: Adobe Illustrator 23.0.0, SVG Export Plug-In . SVG Version: 6.00 Build 0)  -->
<svg version="1.1" id="圖層_1" xmlns="http://www.w3.org/2000/svg" xmlns:xlink="http://www.w3.org/1999/xlink" x="0px" y="0px"
	 viewBox="0 0 90 90" style="enable-background:new 0 0 90 90;" xml:space="preserve">
<style type="text/css">
	.st0{fill:#505050;}
	.st1{fill:#FFFFFF;stroke:#000000;stroke-width:2;stroke-miterlimit:10;}
</style>
<title>logo2</title>
<circle class="st0" cx="45" cy="45" r="45"/>
<path class="st1" d="M57.1,86l1.1-1c1.3-1.1,2.4-2.4,3.3-3.8c0.6-1,1.3-2,1.9-3.1c0.5-0.9,0.9-1.8,1.3-2.7c0.4-0.9,1-2.1,1.4-3.1
	c1.1-2.7,1.8-5.6,2.2-8.4c0.4-2.9,0-5.9-1.4-8.6c-0.5-0.9-1.1-1.8-1.8-2.6c-0.6-0.8-1.1-1.8-1.4-2.8c-0.2-1.2-0.2-2.4,0.1-3.5
	c0.3-1.3,0.6-2.5,0.8-3.8c0.3-2-0.1-3.3-2-4.4c-1-0.5-2-0.9-3-1.4l-0.9-0.4c-1.2-0.5-2-1.7-2-3.1c-0.5,0.6-0.9,1.2-1.2,1.7
	c-1,1.5-2.2,2.8-3.6,3.9c-1.5,1.2-3.6,1.4-5.3,0.5c-1.5-0.8-2.9-1.6-4.3-2.6c-2-1.4-4-2.6-6.2-3.7c-1.8-0.8-3.8-1.4-5.8-1.7
	c-0.6,0-1.2,0-1.8,0.2c-0.3,0-0.6,0.1-0.9,0.2c-0.4,0.9-0.8,1.9-1.2,2.8c-0.6,1-1.3,2.1-1.9,3.1c-0.1,0.2-0.2,0.4-0.2,0.6
	c0.1,0.1,0.1,0.1,0.2,0.1c1.4-0.2,2.9-0.2,4.3,0c0.7,0.1,1.5,0,2.2-0.1c0.9-0.1,1.2-1,1.1-1.8c0-0.4-0.3-0.5-0.7-0.4
	c-0.1,0-0.3,0-0.4,0c0.1-0.1,0.1-0.3,0.3-0.4c0.5-0.3,1.1-0.1,1.3,0.4c0.1,0.2,0.1,0.3,0.1,0.5c0.1,1-0.5,1.8-1.5,2.1
	c-1.1,0.2-2.2,0.2-3.3,0c-1.1-0.2-2.2-0.2-3.3,0.1l-0.3,0.1c0.6,4,1.2,8.1,1.9,12.1c0.6,4,1.5,7.9,1.9,12c-1-3.9-1.7-7.9-2.4-11.9
	c-0.7-4-1.3-8-2-12c-0.4,0.2-0.8,0.3-1.1,0.5c-0.1,0-0.3,0-0.5-0.1c-0.1-0.1-0.1-0.2,0-0.4c0.4-0.3,0.7-0.7,1.1-1
	c0.1-0.1,0.1-0.2,0.1-0.4c-0.3-1.6-0.6-3.1-0.8-4.7c0,0,0-0.1-0.1-0.1c-0.6,0.1-1.2,0.3-1.7,0.4c-0.3,0-0.7,0-1,0
	c-0.4-0.1-0.8-0.1-1.2-0.3c-0.2-0.1-0.4-0.2-0.5-0.4c-0.1-0.1,0.1-0.3,0.3-0.5c0.6-0.9,1.5-1.7,2.4-2.3c0.1-0.1,0.3-0.2,0.4-0.3
	c0.8-0.5,0.8-0.5,0.6-1.4c-0.5-2.2-1-4.3-1.4-6.4c-0.3-1.3-0.6-2.6-0.9-3.9c-0.1-0.6-0.2-1.3-0.2-1.9c0-0.1,0.1-0.2,0.1-0.3
	c0.1,0.1,0.1,0.2,0.2,0.4c0,0.1,0,0.2,0.1,0.3c0.5,2.2,0.9,4.4,1.4,6.7l1.2,5.6c0,0.1,0.1,0.3,0.1,0.3c0.8-0.1,1.7-0.2,2.6-0.2
	c0.6,0.1,1.2,0.2,1.8,0.5c0.5,0.2,0.5,0.6,0,1c-1.1,1-2.4,1.8-3.7,2.5l0.8,4.6c0.1-0.1,0.2-0.2,0.3-0.3c1.1-1.6,1.9-3.3,2.5-5.1
	c0.5-1.6,0.9-3.1,1.2-4.7c0.4-2.1,0.6-4.2,0.5-6.3c-0.1-1.2,0.1-2.3,0.4-3.5c0.5-1.4,1.4-2.6,2.5-3.6c1.8-1.5,3.7-2.7,5.7-3.8
	C39,9.1,41,8.3,43,7.8c1.5-0.4,3.1-0.4,4.6-0.1c1.7,0.4,3,1.9,3.1,3.7c0.1,1.8-0.2,3.6-0.9,5.2l-1.8,4.7c-0.1,0.3-0.2,0.7-0.3,1
	c-0.2,0.8,0.1,1.2,0.9,1.3c0.8,0.1,1.5,0.1,2.3,0.1c1.2,0,2.4,0.1,3.6,0.3c2.6,0.6,3.2,2.4,3.2,4.6c-0.1,0.2-0.1,0.7-0.1,1.2
	c0,0.8-0.1,1.6-0.4,2.4c-0.3,2.4,0.3,3.1,2.2,4c1.2,0.5,2.4,1,3.5,1.6c1.8,0.9,2.7,2.8,2.2,4.7c-0.3,1.5-0.6,3-0.9,4.5
	c-0.4,1.9,0.1,3.9,1.3,5.3c1.5,1.9,2.6,4.1,3.1,6.4c0.4,1.9,0.4,3.9,0.1,5.8c-0.5,3.1-1.4,6.2-2.6,9c-1.1,2.5-2.4,4.9-3.9,7.2
	c-1,1.5-2.3,2.9-3.7,4.1c-0.4,0.4-0.9,0.7-1.3,1c-0.1,0.1-0.3,0.1-0.4,0.2L57.1,86z"/>
<path d="M48.5,43.1l-0.3,0.4c0.4,0,0.4,0.2,0.2,0.4c-0.1,0.1-0.2,0.3-0.4,0.3L43,47.6c-1.1,0.8-2.3,1.6-3.4,2.4
	c-0.6,0.4-0.7,0.4-1.3,0c-0.5-0.3-0.8-0.7-0.9-1.2c0-0.2,0.1-0.3,0.2-0.4c0.6-0.3,1.3-0.6,1.9-1c1.7-1.1,3.5-2,5.4-2.9
	c1-0.5,2-1,3-1.5C48.2,43.1,48.4,43.1,48.5,43.1L48.5,43.1z"/>
</svg>
