<svg xmlns="http://www.w3.org/2000/svg" viewBox="0 0 90 90"><defs><style>.a{fill:#636363;}.b{fill:#fff;}</style></defs><title>logo2</title><circle class="a" cx="45" cy="45" r="45"/><path class="b" d="M60.37,87.47l1.09-.91a15.86,15.86,0,0,0,3.16-3.67c.6-1,1.25-1.93,1.81-2.93.47-.82.85-1.7,1.25-2.56s.95-2,1.34-3a34.18,34.18,0,0,0,2.12-8.07,13.63,13.63,0,0,0-1.3-8.19,23.21,23.21,0,0,0-1.69-2.53,8.25,8.25,0,0,1-1.37-2.69,7.33,7.33,0,0,1,.08-3.39c.24-1.2.58-2.39.77-3.6.32-1.94-.1-3.2-1.89-4.2-.92-.51-1.91-.88-2.87-1.32L62,40a3.18,3.18,0,0,1-1.9-2.93c-.44.62-.83,1.12-1.17,1.65a15.17,15.17,0,0,1-3.47,3.72,4.55,4.55,0,0,1-5.05.44,46.8,46.8,0,0,1-4.13-2.46,50.59,50.59,0,0,0-5.92-3.54,22.3,22.3,0,0,0-5.52-1.63,5.88,5.88,0,0,0-1.7.17c-.29,0-.58.11-.87.17-.39.9-.72,1.84-1.19,2.72-.56,1-1.23,2-1.84,3a3.6,3.6,0,0,0-.22.54c.11.06.14.09.16.08a12.51,12.51,0,0,1,4.14,0,9.92,9.92,0,0,0,2.11-.07c.9-.13,1.11-1,1.09-1.69,0-.37-.26-.48-.65-.38a1.23,1.23,0,0,1-.37,0c.08-.11.14-.28.25-.34a.93.93,0,0,1,1.37.85,1.91,1.91,0,0,1-1.4,2,7.94,7.94,0,0,1-3.11,0,8.35,8.35,0,0,0-3.15.06l-.27.1q.88,5.78,1.78,11.54c.58,3.81,1.47,7.59,1.79,11.45-1-3.74-1.6-7.56-2.26-11.36s-1.26-7.63-1.9-11.49c-.38.16-.72.33-1.07.44-.13,0-.3,0-.45-.06a1.3,1.3,0,0,1,.21-.34c.34-.33.71-.63,1.05-1a.51.51,0,0,0,.09-.35c-.26-1.51-.53-3-.79-4.52a.33.33,0,0,0-.06-.1c-.56.13-1.1.28-1.65.37a3.8,3.8,0,0,1-1,0,7.58,7.58,0,0,1-1.15-.24,1,1,0,0,1-.5-.35c-.05-.06.14-.29.24-.44a7.55,7.55,0,0,1,2.32-2.18c.13-.09.26-.18.4-.26.79-.46.8-.46.61-1.34q-.64-3-1.31-6c-.27-1.23-.57-2.47-.82-3.71a16.35,16.35,0,0,1-.2-1.85c0-.1.09-.22.14-.33a2.42,2.42,0,0,1,.31.25c0,.06,0,.16.06.25.45,2.12.89,4.24,1.34,6.36l1.14,5.31c0,.14.06.27.08.33a17.45,17.45,0,0,1,2.45-.2,4.63,4.63,0,0,1,1.68.49c.49.23.47.54,0,.91a14.28,14.28,0,0,1-3.57,2.36l.74,4.43a2.92,2.92,0,0,0,.27-.31,18.48,18.48,0,0,0,2.36-4.85c.44-1.49.88-3,1.18-4.51a31.22,31.22,0,0,0,.51-6,10,10,0,0,1,.4-3.3A7.75,7.75,0,0,1,36,18.45a32.22,32.22,0,0,1,5.49-3.63,22.11,22.11,0,0,1,5.55-2.18,10.35,10.35,0,0,1,4.43-.14,4,4,0,0,1,3,3.53A10.9,10.9,0,0,1,53.62,21l-1.68,4.47a6.75,6.75,0,0,0-.29,1c-.15.72.13,1.14.85,1.22s1.45.06,2.17.11a23.57,23.57,0,0,1,3.48.31c2.51.57,3.1,2.25,3.06,4.38a9.63,9.63,0,0,0-.11,1.29,8,8,0,0,1-.34,2.3c-.3,2.27.28,3,2.14,3.86,1.11.49,2.25.94,3.3,1.53A4,4,0,0,1,68.33,46c-.25,1.45-.58,2.89-.88,4.33a5.94,5.94,0,0,0,1.26,5.09,14.82,14.82,0,0,1,3,6.14,16,16,0,0,1,.09,5.57,34.3,34.3,0,0,1-2.53,8.64,42.75,42.75,0,0,1-3.69,6.86,19,19,0,0,1-3.49,3.89c-.39.34-.82.65-1.24,1a1.81,1.81,0,0,1-.4.18Z" transform="translate(-5 -5)"/><path class="b" d="M53.51,48.14l-.33.43c.37,0,.37.19.22.4a1.42,1.42,0,0,1-.38.35l-4.88,3.36c-1.14.79-2.26,1.59-3.41,2.38-.6.42-.72.41-1.31,0a1.78,1.78,0,0,1-.88-1.21.47.47,0,0,1,.21-.38,17.41,17.41,0,0,0,1.88-.95A55.76,55.76,0,0,1,50,49.65c1-.52,2-1,3-1.45a2.33,2.33,0,0,1,.55-.14Z" transform="translate(-5 -5)"/></svg>