<?xml version="1.0" encoding="utf-8"?>
<!-- Generator: Adobe Illustrator 23.0.0, SVG Export Plug-In . SVG Version: 6.00 Build 0)  -->
<svg version="1.1" id="圖層_1" xmlns="http://www.w3.org/2000/svg" xmlns:xlink="http://www.w3.org/1999/xlink" x="0px" y="0px"
	 viewBox="0 0 200 200" style="enable-background:new 0 0 200 200;" xml:space="preserve">
<style type="text/css">
	.st0{stroke:#FFFFFF;stroke-width:8;stroke-miterlimit:10;}
	.st1{fill:#FFFFFF;}
	.st2{fill:none;stroke:#FFFFFF;stroke-width:16;stroke-linecap:round;stroke-miterlimit:10;}
</style>
<title>uploadfile-icon</title>
<path class="st0" d="M195,100c0,52.4-42.6,95-95,95S5,152.4,5,100S47.6,5,100,5S195,47.6,195,100z"/>
<path class="st1" d="M82.6,124.8l57.5,0.1c10.9,0,19.7-8.8,19.7-19.7s-8.8-19.7-19.7-19.7h-0.2c2.1-16.6-9.6-31.7-26.2-33.8
	C99.8,50,86.4,58.1,81.6,71.3c-5.8-5.8-15.3-5.8-21.1,0c-2.8,2.8-4.4,6.6-4.4,10.6c0,0.2,0,0.4,0,0.6c-11.5,3.2-18.2,15-15,26.5
	c2.6,9.3,11.1,15.8,20.8,15.8L82.6,124.8"/>
<polyline class="st2" points="87.6,107.5 100,95 112.4,107.5 "/>
</svg>
