<svg xmlns="http://www.w3.org/2000/svg" viewBox="0 0 743.8 743.8"><defs><style>.a{fill:#494949;}.b,.c{fill:none;stroke:#fff;stroke-linecap:round;stroke-width:16px;}.b{stroke-linejoin:round;}.c{stroke-miterlimit:10;}</style></defs><title>uploadfile-icon</title><path class="a" d="M771.9,400c0,205.3-166.6,371.9-371.9,371.9S28.1,605.3,28.1,400,194.7,28.1,400,28.1,771.9,194.7,771.9,400Z" transform="translate(-28.1 -28.1)"/><path class="b" d="M468.2,497.4h88.6a77,77,0,0,0,0-154h-.6a118.26,118.26,0,0,0-228.3-55.7A58.48,58.48,0,0,0,228,329c0,.8.1,1.6.1,2.4a84.42,84.42,0,0,0,22.5,165.8h81.2" transform="translate(-28.1 -28.1)"/><polyline class="c" points="323.2 401.1 371.9 352.4 420.6 401.1"/><line class="c" x1="371.9" y1="547.3" x2="371.9" y2="355.7"/></svg>